<svg xmlns="http://www.w3.org/2000/svg" width="13.954" height="13.954" viewBox="0 0 13.954 13.954">
  <path id="search" d="M19.1,19.9l-5.1-5.1a4.271,4.271,0,0,1-1.357.785A4.8,4.8,0,0,1,11,15.873a4.826,4.826,0,0,1-3.547-1.454A4.78,4.78,0,0,1,6,10.911,4.78,4.78,0,0,1,7.454,7.4,4.8,4.8,0,0,1,10.981,5.95a4.748,4.748,0,0,1,3.5,1.454,4.96,4.96,0,0,1,1.173,5.117,4.919,4.919,0,0,1-.814,1.454l5.117,5.078ZM10.981,14.71A3.627,3.627,0,0,0,13.655,13.6a3.675,3.675,0,0,0,1.1-2.684,3.675,3.675,0,0,0-1.1-2.684,3.627,3.627,0,0,0-2.675-1.114,3.8,3.8,0,0,0-3.818,3.8,3.8,3.8,0,0,0,3.818,3.8Z" transform="translate(-6 -5.95)" fill="#eaeaea"/>
</svg>
