<svg xmlns="http://www.w3.org/2000/svg" width="14" height="14" viewBox="0 0 14 14">
  <path id="settings" d="M9.39,18l-.35-2.2a4.689,4.689,0,0,1-.7-.332,4.81,4.81,0,0,1-.648-.437l-2.065.945L4,13.1l1.89-1.383a2.08,2.08,0,0,1-.044-.359q-.009-.2-.009-.359t.009-.359a2.08,2.08,0,0,1,.044-.359L4,8.9,5.628,6.03l2.065.945a4.81,4.81,0,0,1,.648-.437,3.621,3.621,0,0,1,.7-.315L9.39,4h3.22l.35,2.205a5.674,5.674,0,0,1,.709.324,3.012,3.012,0,0,1,.639.446l2.065-.945L18,8.9l-1.89,1.348a2.466,2.466,0,0,1,.044.376q.009.2.009.376t-.009.367a2.437,2.437,0,0,1-.044.368L18,13.1l-1.628,2.87-2.065-.945a5.805,5.805,0,0,1-.639.446,3.049,3.049,0,0,1-.709.324L12.61,18ZM11,13.275A2.27,2.27,0,0,0,13.275,11,2.27,2.27,0,0,0,11,8.725,2.27,2.27,0,0,0,8.725,11,2.27,2.27,0,0,0,11,13.275Zm0-1.05a1.225,1.225,0,1,1,.866-.359A1.18,1.18,0,0,1,11,12.225ZM11,11Zm-.77,5.95h1.54l.245-1.96a4.127,4.127,0,0,0,1.094-.437,4.485,4.485,0,0,0,.936-.718l1.855.8.7-1.26-1.645-1.208q.07-.3.114-.586A3.908,3.908,0,0,0,15.113,11a4.868,4.868,0,0,0-.035-.586,3.621,3.621,0,0,0-.122-.586L16.6,8.62l-.7-1.26-1.855.805a3.9,3.9,0,0,0-.91-.761,2.952,2.952,0,0,0-1.12-.394L11.77,5.05H10.23L9.985,7.01a3.708,3.708,0,0,0-1.111.42,3.86,3.86,0,0,0-.919.735L6.1,7.36,5.4,8.62,7.045,9.828q-.07.3-.114.586a3.95,3.95,0,0,0,0,1.172q.044.289.114.586L5.4,13.38l.7,1.26,1.855-.8a4.485,4.485,0,0,0,.936.717,4.127,4.127,0,0,0,1.094.438Z" transform="translate(-4 -4)" fill="#eaeaea"/>
</svg>
